General
Complete name                    : 2012.2009.720p.x264-(Y)(°U°).mkv
Format                           : Matroska
File size                        : 2.43 GiB
Duration                         : 2h 31mn
Overall bit rate                 : 2 293 Kbps
Movie name                       : 2012
Encoded date                     : UTC 2010-01-15 15:07:25
Writing application              : mkvmerge v3.0.0 ('Hang up your Hang-Ups') built on Dec 12 2009 15:20:35
Writing library                  : libebml v0.7.9 + libmatroska v0.8.1

Video
ID                               : 1
Format                           : AVC
Format/Info                      : Advanced Video Codec
Format profile                   : High@L4.1
Format settings, CABAC           : Yes
Format settings, ReFrames        : 4 frames
Muxing mode                      : Container profile=Unknown@4.1
Codec ID                         : V_MPEG4/ISO/AVC
Duration                         : 2h 31mn
Bit rate                         : 2 056 Kbps
Nominal bit rate                 : 2 100 Kbps
Width                            : 1 280 pixels
Height                           : 720 pixels
Display aspect ratio             : 16:9
Frame rate                       : 25.000 fps
Resolution                       : 8 bits
Colorimetry                      : 4:2:0
Scan type                        : Progressive
Bits/(Pixel*Frame)               : 0.089
Stream size                      : 2.17 GiB (90%)
Writing library                  : x264 core 80 r1376kGIT 3feaec2
Language                         : English

Audio
ID                               : 2
Format                           : AC-3
Format/Info                      : Audio Coding 3
Codec ID                         : A_AC3
Duration                         : 2h 31mn
Bit rate mode                    : Constant
Bit rate                         : 192 Kbps
Channel(s)                       : 2 channels
Channel positions                : L R
Sampling rate                    : 48.0 KHz
Stream size                      : 208 MiB (8%)
Language                         : English

Text #1
ID                               : 3
Format                           : UTF-8
Codec ID                         : S_TEXT/UTF8
Codec ID/Info                    : UTF-8 Plain Text
Language                         : Slovenian

Text #2
ID                               : 4
Format                           : UTF-8
Codec ID                         : S_TEXT/UTF8
Codec ID/Info                    : UTF-8 Plain Text
Language                         : Croatian

Text #3
ID                               : 5
Format                           : UTF-8
Codec ID                         : S_TEXT/UTF8
Codec ID/Info                    : UTF-8 Plain Text
Language                         : Serbian

Text #4
ID                               : 6
Format                           : UTF-8
Codec ID                         : S_TEXT/UTF8
Codec ID/Info                    : UTF-8 Plain Text
Language                         : English

Text #5
ID                               : 7
Format                           : UTF-8
Codec ID                         : S_TEXT/UTF8
Codec ID/Info                    : UTF-8 Plain Text
Language                         : Dutch

Text #6
ID                               : 8
Format                           : UTF-8
Codec ID                         : S_TEXT/UTF8
Codec ID/Info                    : UTF-8 Plain Text
Language                         : Swedish

Text #7
ID                               : 9
Format                           : UTF-8
Codec ID                         : S_TEXT/UTF8
Codec ID/Info                    : UTF-8 Plain Text
Language                         : Spanish

Text #8
ID                               : 10
Format                           : UTF-8
Codec ID                         : S_TEXT/UTF8
Codec ID/Info                    : UTF-8 Plain Text
Language                         : Finnish

Text #9
ID                               : 11
Format                           : UTF-8
Codec ID                         : S_TEXT/UTF8
Codec ID/Info                    : UTF-8 Plain Text
Title                            : Portuguęs brasileiro
Language                         : Portuguese

Text #10
ID                               : 12
Format                           : UTF-8
Codec ID                         : S_TEXT/UTF8
Codec ID/Info                    : UTF-8 Plain Text
Language                         : Arabic

Text #11
ID                               : 13
Format                           : UTF-8
Codec ID                         : S_TEXT/UTF8
Codec ID/Info                    : UTF-8 Plain Text
Language                         : Bulgarian

Text #12
ID                               : 14
Format                           : UTF-8
Codec ID                         : S_TEXT/UTF8
Codec ID/Info                    : UTF-8 Plain Text
Language                         : Polish

Text #13
ID                               : 15
Format                           : UTF-8
Codec ID                         : S_TEXT/UTF8
Codec ID/Info                    : UTF-8 Plain Text
Language                         : Romanian

Source                           : 2012.m2ts
 
http://www.imdb.com/title/tt1190080/
